<?xml version="1.0" encoding="iso-8859-1"?>
<svg id="svg" version="1.1" xmlns="http://www.w3.org/2000/svg" xmlns:xlink="http://www.w3.org/1999/xlink" width="400" height="141.6893732970027" viewBox="0, 0, 400,141.6893732970027"><g id="svgg"><path id="path0" d="M0.000 70.833 L 0.000 141.667 200.000 141.667 L 400.000 141.667 400.000 70.833 L 400.000 0.000 200.000 0.000 L 0.000 0.000 0.000 70.833 M312.899 31.097 C 313.051 31.494,313.015 109.218,312.863 109.458 C 312.757 109.625,290.006 109.659,199.657 109.625 L 86.583 109.583 86.541 70.417 C 86.517 48.875,86.534 31.156,86.577 31.042 C 86.712 30.686,312.762 30.741,312.899 31.097 M240.848 42.848 C 240.078 42.951,239.500 43.443,239.500 43.997 C 239.500 44.159,239.358 44.619,239.185 45.020 C 238.915 45.644,238.866 46.211,238.847 48.917 C 238.816 53.365,238.932 53.500,242.799 53.500 C 244.756 53.500,245.598 53.688,245.747 54.158 C 245.830 54.420,245.762 56.635,245.410 65.000 C 245.358 66.237,245.285 69.162,245.248 71.500 C 245.211 73.837,245.106 77.250,245.015 79.083 C 244.785 83.694,244.785 91.764,245.013 92.192 C 245.362 92.843,246.145 93.000,249.036 92.999 C 252.253 92.999,252.963 92.771,252.769 91.803 C 252.713 91.522,252.652 90.045,252.634 88.521 L 252.600 85.750 252.509 88.972 C 252.393 93.037,252.724 92.709,248.809 92.637 C 244.799 92.564,245.164 93.070,245.179 87.599 C 245.185 85.207,245.257 81.637,245.339 79.667 C 245.420 77.696,245.562 72.971,245.654 69.167 C 245.746 65.362,245.860 61.950,245.908 61.583 C 246.143 59.754,246.056 53.818,245.791 53.552 C 245.587 53.349,244.875 53.245,242.685 53.102 C 238.953 52.858,239.249 53.210,239.252 49.035 C 239.256 42.989,239.134 43.083,246.813 43.232 C 257.530 43.440,260.500 43.679,260.500 44.336 C 260.500 44.525,260.659 44.992,260.854 45.373 C 261.188 46.028,261.203 46.254,261.136 49.442 C 261.043 53.853,261.362 53.500,257.474 53.500 C 253.618 53.500,253.902 53.236,253.770 56.940 C 253.638 60.607,253.341 67.722,253.249 69.417 L 253.177 70.750 253.404 69.667 C 253.529 69.071,253.705 68.352,253.796 68.068 C 253.887 67.785,254.010 65.985,254.070 64.068 C 254.130 62.152,254.210 60.133,254.248 59.583 C 254.287 59.033,254.369 57.721,254.430 56.667 C 254.601 53.734,254.474 53.839,257.833 53.835 C 260.118 53.832,260.480 53.794,260.962 53.499 C 261.887 52.936,261.881 52.918,261.772 56.042 C 261.520 63.253,261.460 71.429,261.652 72.353 C 261.967 73.858,262.793 74.370,265.383 74.663 C 266.226 74.758,267.329 74.911,267.833 75.003 C 268.337 75.094,269.981 75.315,271.486 75.494 C 273.434 75.724,274.299 75.895,274.486 76.084 C 274.756 76.355,274.820 82.563,274.576 84.768 L 274.482 85.619 272.866 85.538 C 270.751 85.432,270.477 85.283,270.131 84.056 C 269.674 82.435,269.640 81.270,270.024 80.401 C 270.679 78.921,270.006 78.565,266.156 78.352 C 263.334 78.197,263.038 78.246,262.582 78.943 C 262.411 79.204,262.060 79.642,261.801 79.917 C 261.071 80.692,260.988 81.250,260.841 86.370 C 260.652 92.984,260.765 93.770,262.038 94.716 C 262.834 95.307,264.817 95.703,268.417 95.990 C 269.333 96.063,270.646 96.205,271.333 96.307 C 277.507 97.219,281.145 97.069,281.380 95.894 C 281.432 95.631,281.683 95.117,281.938 94.750 C 282.318 94.203,282.405 93.889,282.426 93.000 C 282.440 92.404,282.499 90.942,282.557 89.750 C 282.621 88.424,282.605 87.745,282.514 88.000 C 282.393 88.343,282.367 88.270,282.367 87.583 C 282.367 86.948,282.397 86.849,282.494 87.167 C 282.621 87.585,282.778 87.436,282.845 86.833 C 282.915 86.205,282.828 86.077,282.562 86.417 C 282.292 86.763,282.295 85.895,282.584 80.250 C 282.626 79.425,282.712 77.400,282.775 75.750 C 282.967 70.698,283.096 69.388,283.465 68.719 C 284.642 66.591,283.158 65.872,276.500 65.340 C 270.059 64.826,270.082 64.854,270.542 58.024 C 270.622 56.838,271.052 56.608,273.000 56.711 C 275.508 56.843,275.397 56.677,275.408 60.285 C 275.415 62.463,275.465 63.033,275.667 63.222 C 276.209 63.732,277.581 64.013,280.034 64.115 L 282.485 64.218 282.984 63.684 C 283.336 63.307,283.510 62.921,283.578 62.367 C 283.631 61.936,283.734 61.277,283.808 60.902 C 283.881 60.527,283.921 57.902,283.895 55.068 C 283.864 51.583,283.911 49.657,284.042 49.115 C 284.445 47.442,283.768 47.139,278.417 46.588 C 267.985 45.514,266.460 45.390,265.774 45.562 C 265.279 45.687,262.333 48.079,262.333 48.357 C 262.333 49.137,261.863 47.939,261.784 46.958 C 261.670 45.552,261.089 43.723,260.692 43.522 C 259.875 43.108,243.152 42.541,240.848 42.848 M160.433 43.007 C 159.089 43.236,159.213 42.032,158.739 59.500 C 158.690 61.288,158.577 64.587,158.486 66.833 C 158.396 69.079,158.252 73.017,158.168 75.583 C 158.083 78.150,157.973 81.262,157.923 82.500 C 157.656 89.167,157.656 89.219,157.941 90.500 C 158.628 93.593,158.241 93.486,168.773 93.494 C 180.868 93.503,180.518 93.673,180.469 87.798 L 180.438 84.083 180.341 87.500 C 180.222 91.674,179.963 92.334,178.250 92.827 C 177.170 93.138,159.480 92.996,159.091 92.674 C 158.250 91.975,158.273 88.539,159.335 57.000 C 159.429 54.204,159.543 50.082,159.589 47.840 C 159.639 45.357,159.738 43.695,159.844 43.590 C 159.959 43.474,163.176 43.417,169.525 43.417 L 179.033 43.417 179.391 43.884 C 179.589 44.141,180.176 44.828,180.698 45.410 C 181.926 46.783,182.042 47.234,181.928 50.219 C 181.828 52.867,181.733 55.413,181.501 61.750 C 181.322 66.626,181.166 67.850,180.577 69.013 C 180.104 69.946,180.080 70.256,180.434 70.833 C 180.600 71.104,180.648 71.133,180.571 70.917 C 180.244 69.995,180.297 69.729,180.964 68.958 C 181.801 67.991,181.817 67.894,181.998 62.628 C 182.080 60.220,182.239 55.978,182.351 53.201 C 182.593 47.186,182.557 46.915,181.355 45.520 C 180.910 45.005,180.422 44.340,180.269 44.042 C 179.708 42.947,179.732 42.949,170.000 42.906 C 165.188 42.885,160.882 42.930,160.433 43.007 M135.905 43.520 C 135.026 43.627,134.333 43.907,134.333 44.156 C 134.333 44.235,134.064 44.701,133.734 45.190 C 132.843 46.514,132.801 47.365,132.890 62.025 C 132.982 77.217,132.958 84.989,132.802 90.333 C 132.771 91.400,133.437 93.009,134.087 93.434 C 135.321 94.243,136.069 94.362,140.333 94.428 C 142.579 94.463,146.300 94.534,148.601 94.586 C 151.775 94.658,152.902 94.631,153.268 94.471 C 155.915 93.319,155.929 93.123,155.971 58.083 C 155.978 51.575,155.991 45.912,155.998 45.498 C 156.024 44.077,154.847 43.693,151.103 43.902 C 148.843 44.027,148.598 44.116,148.340 44.895 C 148.238 45.206,148.010 45.590,147.833 45.750 C 147.138 46.379,147.134 46.481,147.108 65.164 C 147.095 75.050,147.023 83.200,146.949 83.274 C 146.874 83.348,145.808 83.410,144.580 83.413 C 141.939 83.417,141.848 83.371,141.830 81.999 C 141.805 80.129,141.621 77.972,141.502 78.163 C 141.237 78.593,141.167 77.687,141.178 73.945 C 141.185 71.821,141.248 70.231,141.318 70.411 C 141.432 70.702,141.459 70.686,141.566 70.258 C 141.676 69.820,141.756 46.303,141.649 45.917 C 141.624 45.825,141.661 45.508,141.731 45.212 C 141.912 44.445,141.731 44.047,141.106 43.841 C 140.379 43.601,136.966 43.390,135.905 43.520 M141.130 44.392 C 141.298 44.560,141.320 44.717,141.204 44.939 C 140.958 45.412,140.805 82.293,141.044 83.625 C 141.253 84.796,141.466 84.916,142.000 84.167 L 142.356 83.667 144.658 83.667 C 146.457 83.667,147.003 83.614,147.158 83.427 C 147.309 83.245,147.374 78.784,147.427 65.063 L 147.496 46.940 148.153 45.928 C 149.297 44.168,148.979 44.292,152.175 44.359 C 154.179 44.400,155.045 44.478,155.198 44.631 C 155.409 44.842,155.438 67.195,155.228 67.535 C 155.184 67.607,155.110 73.009,155.064 79.541 C 154.947 96.030,156.074 94.326,145.417 94.130 C 135.537 93.949,134.611 93.815,133.692 92.436 L 133.301 91.848 133.245 71.133 C 133.179 46.624,133.181 46.560,133.898 45.656 C 134.183 45.296,134.588 44.781,134.797 44.510 C 135.120 44.093,135.311 44.009,136.047 43.967 C 137.680 43.873,140.878 44.140,141.130 44.392 M226.750 44.453 C 225.467 44.564,223.367 44.733,222.083 44.828 C 213.495 45.462,213.224 45.503,212.854 46.227 C 212.745 46.440,212.604 48.724,212.502 51.917 C 212.409 54.850,212.184 61.450,212.002 66.583 C 211.819 71.717,211.671 77.304,211.672 79.000 C 211.673 80.696,211.546 84.371,211.390 87.167 C 211.066 92.956,211.051 92.850,212.333 93.777 C 212.746 94.075,213.318 94.509,213.606 94.742 C 214.910 95.800,216.278 96.030,219.083 95.664 C 219.725 95.580,221.291 95.432,222.564 95.335 C 223.836 95.238,225.186 95.087,225.564 95.000 C 225.941 94.913,226.910 94.840,227.717 94.837 C 228.524 94.835,229.687 94.725,230.300 94.593 C 230.914 94.461,232.011 94.304,232.738 94.243 C 234.423 94.102,235.711 92.959,234.810 92.402 C 234.528 92.228,234.740 89.439,235.072 88.965 C 235.947 87.717,235.221 86.198,233.250 85.152 C 232.425 84.714,231.579 84.263,231.371 84.149 C 230.980 83.936,230.945 83.938,224.757 84.542 C 223.288 84.685,222.689 84.811,222.478 85.022 C 222.078 85.422,221.995 85.134,222.022 83.445 C 222.060 81.061,222.229 79.579,222.458 79.625 C 222.614 79.656,222.667 79.243,222.667 77.995 C 222.667 75.137,222.904 74.910,226.083 74.732 C 227.000 74.681,228.082 74.533,228.488 74.403 C 228.894 74.273,229.391 74.167,229.593 74.167 C 230.122 74.167,230.297 73.875,230.685 72.340 C 231.325 69.807,230.943 67.000,229.957 67.000 C 229.873 67.000,229.455 66.762,229.027 66.471 C 228.600 66.180,228.025 65.789,227.751 65.602 C 227.201 65.228,225.465 65.176,224.337 65.499 C 223.493 65.741,223.101 65.307,223.101 64.129 C 223.102 62.772,223.498 56.532,223.601 56.264 C 223.780 55.798,223.568 55.829,231.000 55.177 C 236.849 54.664,236.617 54.871,236.775 50.008 C 236.895 46.339,236.913 46.390,235.134 45.497 C 234.373 45.115,233.591 44.655,233.396 44.476 C 232.984 44.095,230.949 44.088,226.750 44.453 M233.387 44.978 C 233.770 45.241,234.543 45.687,235.104 45.970 C 235.665 46.252,236.172 46.606,236.229 46.755 C 236.551 47.594,236.144 53.747,235.740 54.160 C 235.453 54.452,235.632 54.432,225.473 55.323 C 222.709 55.565,222.892 55.223,222.755 60.417 C 222.702 62.433,222.615 64.776,222.560 65.623 C 222.440 67.480,222.608 67.660,223.597 66.738 C 225.081 65.354,226.455 65.277,228.324 66.474 C 229.016 66.917,229.801 67.414,230.066 67.577 L 230.549 67.873 230.438 70.353 C 230.274 73.966,230.342 73.879,227.500 74.166 C 222.660 74.656,222.600 74.668,222.302 75.225 C 222.185 75.444,222.049 77.580,221.942 80.874 C 221.753 86.716,221.797 87.068,222.592 86.052 C 223.467 84.934,224.546 84.664,229.176 84.405 L 231.101 84.297 232.426 85.139 C 233.154 85.602,233.975 86.120,234.250 86.290 C 234.818 86.641,234.819 86.652,234.537 91.111 C 234.368 93.779,234.376 93.766,232.619 93.918 C 231.866 93.983,230.650 94.140,229.917 94.268 C 229.183 94.395,227.983 94.504,227.250 94.510 C 226.517 94.515,225.542 94.592,225.083 94.680 C 224.625 94.767,223.313 94.908,222.167 94.991 C 221.021 95.074,219.221 95.225,218.167 95.325 C 215.565 95.574,215.289 95.507,213.553 94.213 C 211.474 92.663,211.633 93.099,211.741 89.250 C 211.793 87.417,211.946 81.867,212.081 76.917 C 212.216 71.967,212.400 65.817,212.489 63.250 C 212.578 60.683,212.743 55.885,212.856 52.587 C 213.095 45.569,213.019 45.836,214.784 45.830 C 215.315 45.829,216.425 45.758,217.250 45.673 C 218.075 45.588,219.838 45.439,221.167 45.343 C 222.496 45.247,224.296 45.088,225.167 44.991 C 226.480 44.844,229.581 44.637,232.137 44.524 C 232.502 44.508,232.926 44.662,233.387 44.978 M120.417 45.520 C 119.133 45.595,116.433 45.738,114.417 45.837 C 110.844 46.013,108.865 46.295,108.381 46.696 C 107.531 47.402,107.544 47.187,107.564 59.917 L 107.583 71.750 107.986 73.211 C 108.844 76.324,109.193 76.413,118.333 75.852 C 121.532 75.656,121.655 75.749,121.083 77.944 C 120.908 78.616,120.833 79.759,120.833 81.763 C 120.833 85.535,120.855 85.501,118.446 85.497 C 117.513 85.496,116.659 85.437,116.547 85.366 C 116.251 85.178,116.110 83.537,116.315 82.667 C 116.470 82.008,116.451 81.866,116.158 81.500 C 115.975 81.271,115.564 80.692,115.244 80.213 C 114.400 78.951,114.352 78.937,111.174 79.049 C 107.163 79.190,107.003 79.289,107.263 81.462 C 107.336 82.079,107.407 84.721,107.420 87.333 C 107.452 93.675,107.981 95.925,109.603 96.602 C 110.260 96.877,116.408 96.925,118.167 96.669 C 118.763 96.582,120.900 96.464,122.917 96.405 C 129.702 96.208,130.052 95.922,129.849 90.750 L 129.718 87.417 129.692 90.548 C 129.650 95.701,129.567 95.768,122.833 96.018 C 120.587 96.102,118.248 96.244,117.635 96.335 C 115.479 96.654,110.163 96.547,109.548 96.173 C 108.256 95.384,107.929 93.233,108.108 86.698 C 108.216 82.755,108.208 82.613,107.829 81.402 C 107.285 79.668,107.271 79.678,110.601 79.473 C 113.901 79.270,114.235 79.324,114.654 80.133 C 114.830 80.472,115.167 81.008,115.404 81.324 C 115.795 81.847,115.833 82.039,115.833 83.486 C 115.833 85.718,116.271 87.483,116.582 86.504 C 116.709 86.103,117.618 85.825,119.269 85.681 C 121.101 85.522,121.180 85.368,121.490 81.333 C 121.592 80.004,121.760 78.211,121.862 77.349 C 122.114 75.238,122.176 75.280,119.000 75.419 C 117.671 75.477,115.985 75.594,115.254 75.679 C 107.956 76.527,108.089 76.803,108.205 61.033 C 108.250 54.864,108.224 49.478,108.146 49.063 C 107.837 47.409,108.565 46.719,110.861 46.492 C 113.022 46.279,123.270 45.807,125.451 45.820 L 127.248 45.831 128.548 47.207 C 130.446 49.217,130.333 48.678,130.333 55.752 L 130.333 61.848 129.924 62.258 C 129.694 62.488,129.311 62.671,129.049 62.677 C 128.793 62.682,127.461 62.748,126.089 62.823 C 122.465 63.021,122.101 62.651,122.089 58.750 C 122.081 56.112,122.240 56.262,119.601 56.401 C 116.090 56.585,116.329 56.255,116.208 61.099 C 116.088 65.963,116.206 66.612,117.059 65.760 C 117.916 64.902,122.015 64.521,125.903 64.937 L 127.389 65.097 128.453 66.257 C 130.108 68.061,130.087 67.998,130.060 71.083 C 130.044 73.007,130.073 73.473,130.167 72.756 C 130.238 72.209,130.380 71.734,130.482 71.701 C 131.149 71.478,130.546 67.979,129.671 67.000 C 129.467 66.771,129.077 66.276,128.806 65.900 C 127.802 64.509,127.475 64.428,122.917 64.444 C 120.665 64.452,118.589 64.537,118.167 64.638 C 116.884 64.948,116.810 64.772,116.733 61.227 C 116.640 56.976,116.809 56.717,119.688 56.683 C 121.548 56.662,121.580 56.698,121.425 58.674 C 121.296 60.328,122.007 62.434,122.886 63.002 C 123.265 63.246,126.545 63.281,128.770 63.065 C 130.838 62.864,130.897 62.632,130.909 54.667 C 130.918 48.716,131.062 49.362,129.251 47.239 C 127.483 45.167,127.240 45.120,120.417 45.520 M186.701 45.625 C 186.382 45.903,186.361 46.181,186.264 51.417 C 186.208 54.442,186.090 59.842,186.004 63.417 C 185.609 79.620,185.521 91.505,185.778 93.814 C 185.901 94.929,186.462 95.620,187.417 95.834 C 188.696 96.122,206.657 95.925,207.381 95.615 C 208.162 95.281,208.588 94.414,208.415 93.512 C 208.082 91.776,208.133 89.530,208.509 89.328 C 209.034 89.047,208.873 88.195,207.932 86.272 C 207.007 84.383,207.285 84.482,203.441 84.669 C 201.778 84.750,199.187 84.858,197.683 84.909 C 194.943 85.001,194.511 85.101,194.489 85.645 C 194.483 85.816,194.413 85.762,194.300 85.500 C 194.142 85.129,194.099 77.496,194.237 74.250 C 194.261 73.700,194.292 72.331,194.307 71.208 C 194.327 69.624,194.383 69.167,194.557 69.167 C 195.103 69.167,195.386 48.746,194.853 47.833 C 194.665 47.512,194.345 46.896,194.142 46.464 C 193.646 45.410,193.358 45.333,189.910 45.333 C 187.413 45.333,186.993 45.371,186.701 45.625 M192.833 45.884 C 193.254 46.028,193.463 46.226,193.583 46.594 C 193.675 46.875,193.966 47.361,194.230 47.674 L 194.709 48.243 194.597 54.080 C 194.535 57.290,194.379 63.404,194.249 67.667 C 193.712 85.268,193.794 87.326,194.979 85.890 L 195.503 85.254 201.098 85.118 C 207.276 84.967,207.025 84.929,207.309 86.056 C 207.408 86.448,207.635 86.937,207.813 87.143 C 208.294 87.698,208.148 94.555,207.643 95.083 C 207.332 95.408,207.074 95.418,197.424 95.466 C 186.226 95.521,186.513 95.549,186.215 94.374 C 186.030 93.644,186.182 76.835,186.535 59.083 C 186.648 53.400,186.742 48.173,186.745 47.468 C 186.751 46.036,186.833 45.887,187.667 45.789 C 188.978 45.635,192.280 45.696,192.833 45.884 M269.133 46.079 C 270.389 46.214,272.579 46.443,274.000 46.587 C 278.834 47.076,279.749 47.187,281.083 47.445 C 282.257 47.672,283.113 48.000,282.532 48.000 C 282.391 48.000,282.378 48.088,282.487 48.292 C 283.192 49.603,283.276 51.313,283.015 59.044 C 282.840 64.249,283.005 63.903,280.757 63.769 C 275.368 63.449,275.643 63.654,275.705 59.997 C 275.766 56.441,275.753 56.428,271.817 56.226 C 269.262 56.094,269.527 55.681,269.324 60.112 C 269.088 65.269,269.347 66.300,270.684 65.530 C 271.271 65.192,271.432 65.172,272.375 65.318 C 272.948 65.406,274.317 65.561,275.417 65.661 C 282.567 66.312,283.573 66.608,282.729 67.813 C 282.496 68.145,282.453 68.867,282.423 72.892 C 282.388 77.554,281.931 91.615,281.749 93.645 C 281.472 96.724,280.808 96.922,273.500 96.098 C 272.262 95.959,270.200 95.731,268.917 95.591 C 260.449 94.670,260.880 95.139,261.161 87.167 C 261.395 80.533,261.319 80.957,262.510 79.708 L 263.504 78.667 264.809 78.667 C 266.295 78.667,268.734 78.941,269.292 79.171 C 269.796 79.380,269.767 79.555,269.083 80.451 L 268.500 81.215 268.500 83.082 C 268.500 85.854,268.976 86.783,270.007 86.021 C 270.378 85.747,270.573 85.706,270.946 85.825 C 271.812 86.101,274.472 86.151,274.684 85.896 C 275.107 85.387,275.361 76.942,274.978 76.102 C 274.668 75.421,274.417 75.368,268.500 74.742 C 261.183 73.969,261.743 74.824,261.904 64.667 C 262.150 49.070,262.181 48.695,263.288 47.842 C 266.096 45.677,265.913 45.733,269.133 46.079 M168.387 53.609 C 167.600 53.778,167.344 55.770,167.337 61.792 C 167.333 64.674,167.407 65.005,167.887 64.273 C 168.205 63.786,169.257 63.500,170.728 63.500 C 172.030 63.500,172.719 63.042,173.003 61.989 C 173.309 60.853,173.537 54.133,173.279 53.874 C 173.057 53.653,169.167 53.441,168.387 53.609 M172.888 54.155 C 172.972 54.238,172.955 55.025,172.850 55.990 C 172.749 56.920,172.661 58.408,172.654 59.298 C 172.628 62.700,172.491 62.895,169.924 63.177 C 167.714 63.420,167.788 63.530,167.910 60.167 C 168.098 55.012,168.214 54.270,168.873 54.007 C 169.328 53.825,172.682 53.949,172.888 54.155 M283.000 69.936 C 283.000 70.074,282.925 70.140,282.833 70.083 C 282.742 70.027,282.667 69.868,282.667 69.730 C 282.667 69.593,282.742 69.527,282.833 69.583 C 282.925 69.640,283.000 69.799,283.000 69.936 M180.737 75.628 C 180.728 78.913,180.752 79.449,180.840 77.917 C 180.988 75.344,180.997 72.188,180.858 71.712 C 180.799 71.507,180.744 73.270,180.737 75.628 M167.541 72.277 C 166.952 72.402,166.809 72.890,166.747 74.974 L 166.689 76.917 166.827 75.063 C 167.029 72.358,166.866 72.500,169.756 72.500 L 172.167 72.500 172.186 73.042 C 172.197 73.340,172.191 73.658,172.173 73.750 C 172.154 73.841,172.034 75.712,171.906 77.908 C 171.737 80.796,171.609 81.962,171.445 82.126 C 171.139 82.433,166.806 82.713,166.628 82.438 C 166.560 82.335,166.504 82.479,166.503 82.760 C 166.498 83.653,166.902 84.006,167.221 83.389 C 167.509 82.832,168.132 82.667,169.945 82.667 C 172.120 82.667,172.657 81.681,172.679 77.649 C 172.685 76.421,172.744 74.828,172.809 74.108 C 172.980 72.226,173.021 72.256,170.222 72.223 C 168.954 72.209,167.748 72.233,167.541 72.277 M252.958 76.917 C 252.889 79.575,252.801 82.462,252.761 83.333 C 252.703 84.601,252.734 84.452,252.914 82.583 C 253.038 81.300,253.153 79.762,253.170 79.167 C 253.191 78.417,253.237 78.212,253.319 78.500 C 253.478 79.059,253.669 78.001,253.650 76.667 L 253.637 75.750 253.443 76.333 C 253.273 76.846,253.240 76.624,253.167 74.500 C 253.090 72.277,253.073 72.471,252.958 76.917 M166.561 78.750 C 166.561 79.667,166.589 80.020,166.623 79.536 C 166.657 79.052,166.656 78.302,166.622 77.869 C 166.588 77.437,166.560 77.833,166.561 78.750 M129.906 82.333 C 129.906 84.854,129.930 85.885,129.958 84.625 C 129.986 83.365,129.986 81.302,129.958 80.042 C 129.930 78.781,129.906 79.813,129.906 82.333 M180.562 82.250 C 180.563 83.258,180.590 83.649,180.623 83.119 C 180.657 82.588,180.656 81.763,180.623 81.286 C 180.589 80.808,180.562 81.242,180.562 82.250 M269.000 84.010 C 269.000 84.199,268.925 84.307,268.833 84.250 C 268.742 84.193,268.667 84.039,268.667 83.907 C 268.667 83.775,268.742 83.667,268.833 83.667 C 268.925 83.667,269.000 83.821,269.000 84.010 " stroke="none" fill="#3bdbbc" fill-rule="evenodd"></path><path id="path1" d="M162.250 44.836 C 159.970 45.087,160.227 43.313,159.670 62.667 C 159.579 65.829,159.430 70.404,159.338 72.833 C 158.779 87.615,158.756 91.436,159.222 92.074 C 159.597 92.585,160.711 92.659,168.083 92.657 C 177.433 92.654,178.508 92.570,179.304 91.774 L 179.891 91.187 180.024 88.135 C 180.714 72.391,180.714 72.357,180.120 70.741 C 179.886 70.107,179.895 70.008,180.257 69.117 C 180.813 67.750,180.974 66.732,181.078 63.917 C 181.129 62.542,181.244 59.579,181.334 57.333 C 181.424 55.087,181.517 51.847,181.540 50.133 L 181.583 47.016 180.935 46.352 C 179.606 44.991,179.468 44.969,172.006 44.896 C 168.382 44.861,164.929 44.808,164.333 44.779 C 163.737 44.750,162.800 44.775,162.250 44.836 M240.578 44.814 C 239.800 45.155,239.753 45.371,239.696 48.847 C 239.629 52.904,239.386 52.600,242.833 52.763 C 245.700 52.897,246.269 53.073,246.419 53.869 C 246.536 54.493,246.267 65.070,246.003 70.250 C 245.699 76.202,245.458 91.277,245.661 91.656 C 245.967 92.229,251.649 92.564,251.981 92.029 C 252.151 91.755,252.260 89.594,252.584 80.083 C 252.724 75.958,252.914 70.858,253.006 68.750 C 253.099 66.642,253.249 62.554,253.341 59.667 C 253.563 52.679,253.252 53.167,257.487 53.167 C 260.989 53.167,260.683 53.511,260.793 49.451 C 260.898 45.583,260.905 45.605,259.462 45.354 C 257.254 44.971,241.264 44.514,240.578 44.814 M135.583 45.543 C 135.308 45.634,134.826 45.793,134.511 45.898 C 134.127 46.026,133.903 46.225,133.829 46.503 C 133.625 47.272,133.471 90.349,133.669 91.273 C 133.915 92.417,134.611 93.079,135.833 93.330 C 136.819 93.532,152.514 93.893,153.083 93.727 C 153.638 93.564,154.330 92.801,154.489 92.175 C 154.822 90.869,155.156 47.611,154.839 46.847 C 154.330 45.618,148.677 45.577,148.070 46.797 C 147.934 47.069,147.848 52.316,147.767 65.297 L 147.653 83.417 146.975 84.020 C 146.239 84.675,145.408 84.867,143.167 84.901 C 142.571 84.909,141.906 85.018,141.689 85.141 C 140.517 85.809,140.480 85.098,140.610 64.471 C 140.737 44.179,140.873 46.014,139.221 45.700 C 137.790 45.427,136.153 45.357,135.583 45.543 M230.750 46.280 C 230.383 46.305,228.808 46.408,227.250 46.509 C 225.692 46.610,223.854 46.763,223.167 46.848 C 222.479 46.934,220.904 47.076,219.667 47.163 C 217.397 47.324,217.222 47.306,215.287 46.730 C 213.990 46.343,213.845 46.494,214.245 47.816 C 214.410 48.362,214.507 48.956,214.460 49.136 C 214.413 49.316,214.430 49.553,214.498 49.664 C 214.566 49.774,214.506 50.401,214.365 51.057 C 214.118 52.205,213.916 58.824,213.981 63.667 C 213.994 64.629,213.930 67.067,213.838 69.083 C 213.655 73.120,213.458 77.774,213.394 79.583 C 213.356 80.646,213.351 81.463,213.354 85.583 C 213.355 86.317,213.304 87.203,213.241 87.553 C 213.135 88.149,213.270 88.780,213.998 91.083 C 214.085 91.358,214.202 91.883,214.258 92.250 C 214.655 94.849,215.752 95.349,219.735 94.749 C 220.644 94.612,221.919 94.498,222.569 94.496 C 223.218 94.494,224.087 94.414,224.499 94.319 C 224.911 94.224,226.261 94.078,227.499 93.995 C 230.627 93.783,233.665 93.402,233.873 93.194 C 233.969 93.098,234.077 92.621,234.113 92.135 C 234.150 91.648,234.256 90.367,234.350 89.288 C 234.542 87.071,234.498 86.795,233.906 86.525 C 233.395 86.293,228.520 86.264,227.667 86.489 C 227.346 86.573,226.146 86.685,225.000 86.737 C 223.854 86.790,222.710 86.879,222.457 86.936 C 221.408 87.172,221.346 86.558,221.660 79.015 C 221.858 74.255,221.780 74.353,225.676 74.018 C 228.702 73.759,229.661 73.538,229.843 73.058 C 230.192 72.140,230.233 68.270,229.896 67.971 C 229.561 67.672,226.940 67.559,224.063 67.720 C 223.318 67.762,222.607 67.733,222.482 67.655 C 222.237 67.504,222.219 63.742,222.438 58.620 C 222.593 54.995,222.303 55.183,228.505 54.669 C 233.640 54.243,235.270 54.027,235.507 53.742 C 235.717 53.489,236.092 47.722,235.938 47.110 C 235.757 46.386,233.782 46.070,230.750 46.280 M121.167 47.507 C 120.204 47.574,118.067 47.716,116.417 47.824 C 111.419 48.149,109.672 48.372,109.421 48.716 C 108.839 49.512,108.765 51.028,108.757 62.333 L 108.750 73.417 109.169 74.166 C 109.932 75.527,110.390 75.584,117.540 75.214 C 123.019 74.930,122.577 74.458,122.412 80.424 C 122.263 85.808,122.387 85.487,120.288 85.910 C 119.396 86.090,118.667 86.321,118.667 86.422 C 118.667 86.616,116.678 87.500,116.243 87.500 C 115.834 87.500,115.689 86.820,115.565 84.311 C 115.443 81.849,115.239 81.274,114.464 81.202 C 114.346 81.192,113.800 81.133,113.250 81.073 C 111.766 80.910,109.319 81.244,108.980 81.655 C 108.373 82.394,108.484 93.789,109.112 95.117 C 109.645 96.247,111.481 96.386,118.583 95.837 C 119.683 95.752,121.785 95.641,123.254 95.589 C 129.428 95.372,129.399 95.400,129.456 89.667 C 129.477 87.513,129.571 82.037,129.664 77.500 C 129.840 68.906,129.817 68.448,129.158 67.610 C 128.554 66.843,126.852 66.135,125.641 66.148 C 123.781 66.167,123.509 66.167,123.042 66.150 C 122.790 66.140,122.246 66.172,121.833 66.220 C 120.778 66.343,117.203 66.652,116.600 66.673 C 115.951 66.695,115.917 66.455,115.917 61.950 C 115.917 55.976,115.765 56.217,119.617 56.048 C 122.685 55.913,122.666 55.898,122.669 58.379 C 122.672 60.345,122.978 62.111,123.358 62.352 C 124.054 62.793,129.390 62.396,129.792 61.874 C 130.121 61.446,130.088 49.821,129.756 49.178 C 128.884 47.492,126.910 47.108,121.167 47.507 M188.168 47.469 C 187.008 47.697,187.132 45.864,186.766 68.250 C 186.560 80.914,186.491 93.771,186.629 94.250 C 186.902 95.204,187.039 95.215,197.570 95.092 C 202.787 95.031,207.182 94.914,207.336 94.832 C 207.578 94.703,207.629 94.220,207.720 91.216 L 207.826 87.750 207.320 87.313 C 206.588 86.681,200.667 86.104,200.667 86.665 C 200.667 86.925,200.012 86.956,199.663 86.712 C 199.400 86.528,199.256 86.511,199.119 86.647 C 198.888 86.878,196.891 86.895,196.750 86.667 C 196.593 86.413,195.379 86.468,194.828 86.753 C 194.370 86.989,194.316 86.982,193.977 86.644 L 193.615 86.281 193.727 78.766 C 193.789 74.632,193.910 68.887,193.995 66.000 C 194.323 54.919,194.370 48.441,194.125 48.108 C 193.753 47.606,189.694 47.170,188.168 47.469 M264.274 47.663 C 262.720 48.155,262.636 48.532,262.483 55.630 C 262.411 58.956,262.314 61.806,262.268 61.963 C 262.221 62.121,262.161 64.551,262.133 67.363 C 262.070 73.843,262.017 73.742,265.667 74.144 C 276.048 75.288,275.355 75.076,275.468 77.137 C 275.502 77.749,275.452 79.969,275.357 82.070 L 275.185 85.890 274.696 86.565 C 274.058 87.447,273.474 87.601,271.795 87.334 C 271.087 87.221,270.262 87.173,269.962 87.228 C 268.590 87.480,268.209 86.606,268.183 83.145 C 268.164 80.635,268.303 80.801,265.890 80.420 C 263.077 79.976,261.946 80.286,261.773 81.547 C 261.665 82.343,261.408 90.000,261.433 91.692 C 261.473 94.347,261.603 94.396,271.083 95.407 C 272.458 95.554,274.333 95.766,275.250 95.879 C 281.439 96.639,281.362 96.728,281.667 88.500 C 282.362 69.739,282.357 69.295,281.452 68.242 C 281.029 67.751,278.342 67.186,276.333 67.167 C 275.737 67.161,274.425 67.000,273.417 66.809 C 272.408 66.618,271.171 66.426,270.667 66.382 C 268.942 66.231,268.786 65.699,268.943 60.491 C 269.093 55.495,269.051 55.546,272.696 55.926 C 276.085 56.278,276.036 56.221,276.160 59.998 L 276.250 62.746 276.704 62.963 C 277.345 63.270,281.771 63.621,282.132 63.393 C 282.579 63.111,282.652 62.368,282.772 56.917 C 282.940 49.236,283.094 49.611,279.494 48.950 C 274.290 47.996,265.556 47.257,264.274 47.663 M173.549 53.546 L 174.000 53.841 173.987 56.546 C 173.959 62.613,173.797 63.557,172.750 63.739 C 170.978 64.048,170.456 64.187,170.234 64.409 C 170.092 64.551,169.867 64.667,169.733 64.667 C 169.599 64.667,169.035 64.820,168.479 65.007 C 166.860 65.553,166.932 65.826,167.073 59.689 C 167.202 54.065,167.250 53.766,168.079 53.391 C 168.865 53.036,172.949 53.151,173.549 53.546 M172.976 72.269 C 173.360 72.537,173.360 72.545,173.323 76.227 C 173.259 82.697,173.221 82.821,171.343 82.850 C 170.068 82.869,169.425 83.018,169.396 83.299 C 169.384 83.410,169.366 83.565,169.354 83.643 C 169.343 83.722,168.930 83.828,168.437 83.879 C 167.944 83.930,167.383 84.070,167.190 84.191 C 166.344 84.719,166.246 84.243,166.287 79.785 C 166.335 74.615,166.521 72.691,167.012 72.292 C 167.525 71.874,172.387 71.856,172.976 72.269 " stroke="none" fill="#effaf9" fill-rule="evenodd"></path><path id="path2" d="M86.577 31.042 C 86.534 31.156,86.517 48.875,86.541 70.417 L 86.583 109.583 199.657 109.625 C 290.006 109.659,312.757 109.625,312.863 109.458 C 313.015 109.218,313.051 31.494,312.899 31.097 C 312.762 30.741,86.712 30.686,86.577 31.042 M250.333 42.894 C 255.792 43.014,260.218 43.282,260.692 43.522 C 261.089 43.723,261.670 45.552,261.784 46.958 C 261.863 47.939,262.333 49.137,262.333 48.357 C 262.333 48.079,265.279 45.687,265.774 45.562 C 266.460 45.390,267.985 45.514,278.417 46.588 C 283.768 47.139,284.445 47.442,284.042 49.115 C 283.911 49.657,283.864 51.583,283.895 55.068 C 283.921 57.902,283.881 60.527,283.808 60.902 C 283.734 61.277,283.631 61.936,283.578 62.367 C 283.510 62.921,283.336 63.307,282.984 63.684 L 282.485 64.218 280.034 64.115 C 277.581 64.013,276.209 63.732,275.667 63.222 C 275.465 63.033,275.415 62.463,275.408 60.285 C 275.397 56.677,275.508 56.843,273.000 56.711 C 271.052 56.608,270.622 56.838,270.542 58.024 C 270.082 64.854,270.059 64.826,276.500 65.340 C 283.242 65.878,284.593 66.552,283.435 68.800 C 283.253 69.153,283.218 69.913,283.276 72.333 C 283.316 74.029,283.271 76.317,283.175 77.417 C 283.079 78.517,282.958 81.067,282.907 83.083 C 282.856 85.100,282.734 87.875,282.635 89.250 C 282.296 93.976,282.393 94.994,283.082 93.943 C 283.315 93.587,283.360 92.692,283.414 87.351 C 283.449 83.952,283.537 81.076,283.609 80.960 C 283.682 80.845,283.757 78.987,283.776 76.833 C 283.836 70.327,283.767 70.394,289.917 70.819 C 294.080 71.106,294.635 71.220,296.440 72.162 C 297.324 72.623,298.139 73.000,298.252 73.000 C 299.187 73.000,300.046 75.259,299.442 76.130 C 299.199 76.481,299.000 76.828,299.000 76.902 C 299.000 76.975,298.813 77.258,298.583 77.530 C 298.354 77.803,298.167 78.122,298.167 78.239 C 298.167 78.357,297.654 78.895,297.027 79.435 C 296.400 79.975,295.668 80.710,295.402 81.068 C 295.135 81.427,294.642 82.042,294.306 82.436 C 293.971 82.830,293.647 83.378,293.587 83.652 C 293.519 83.961,293.338 84.195,293.113 84.266 C 292.628 84.418,289.026 88.102,285.156 92.405 C 284.749 92.857,284.141 93.504,283.805 93.844 C 283.469 94.183,283.044 94.753,282.862 95.111 C 282.679 95.468,282.355 95.845,282.140 95.949 C 280.143 96.911,280.119 96.917,278.500 96.904 C 276.784 96.889,273.331 96.602,271.333 96.307 C 270.646 96.205,269.333 96.063,268.417 95.991 C 263.220 95.581,261.530 94.986,260.978 93.372 C 260.758 92.727,260.729 83.883,260.943 82.690 L 261.044 82.131 260.588 82.524 C 260.338 82.740,259.878 83.420,259.567 84.036 C 259.256 84.652,258.773 85.324,258.494 85.531 C 258.215 85.737,257.504 86.508,256.915 87.245 C 256.326 87.981,255.385 89.033,254.824 89.583 C 253.784 90.604,252.833 91.833,252.833 92.157 C 252.833 93.352,245.651 93.383,245.013 92.192 C 244.789 91.772,244.780 84.043,244.999 79.007 C 245.084 77.041,245.138 75.415,245.118 75.396 C 245.098 75.376,244.558 75.602,243.916 75.897 C 243.275 76.192,242.300 76.529,241.750 76.645 C 240.425 76.924,238.664 77.493,238.255 77.774 C 238.074 77.898,237.789 78.000,237.622 78.000 C 236.931 78.000,236.798 79.029,237.433 79.460 C 237.745 79.672,238.000 79.919,238.000 80.010 C 238.000 80.100,238.194 80.468,238.432 80.827 C 239.410 82.305,237.654 84.103,234.750 84.597 C 233.345 84.836,233.173 85.160,234.179 85.673 C 235.032 86.108,235.369 86.845,235.308 88.142 C 235.263 89.110,235.570 89.863,236.093 90.064 C 236.492 90.217,236.368 90.686,235.667 91.686 C 235.300 92.209,235.000 92.761,235.000 92.914 C 235.000 93.614,234.126 94.127,232.738 94.243 C 232.011 94.304,230.914 94.461,230.300 94.593 C 229.687 94.725,228.524 94.835,227.717 94.837 C 226.910 94.840,225.941 94.913,225.564 95.000 C 225.186 95.087,223.836 95.238,222.564 95.335 C 221.291 95.432,219.725 95.580,219.083 95.664 C 216.278 96.030,214.910 95.800,213.606 94.742 C 213.318 94.509,212.746 94.075,212.333 93.777 C 211.051 92.850,211.066 92.956,211.390 87.167 C 211.546 84.371,211.673 80.696,211.672 79.000 C 211.671 77.304,211.819 71.717,212.002 66.583 C 212.184 61.450,212.409 54.850,212.502 51.917 C 212.604 48.724,212.745 46.440,212.854 46.227 C 213.223 45.507,213.733 45.429,222.000 44.840 C 223.237 44.751,225.037 44.601,226.000 44.506 C 229.976 44.113,232.987 44.097,233.387 44.467 C 233.587 44.652,234.373 45.115,235.134 45.497 C 236.913 46.390,236.895 46.339,236.775 50.008 C 236.617 54.871,236.849 54.664,231.000 55.177 C 223.568 55.829,223.780 55.798,223.601 56.264 C 223.498 56.532,223.102 62.772,223.101 64.129 C 223.101 65.307,223.493 65.741,224.337 65.499 C 225.465 65.176,227.201 65.228,227.751 65.602 C 228.025 65.789,228.600 66.180,229.027 66.471 C 229.455 66.762,229.873 67.000,229.957 67.000 C 230.619 67.000,230.916 67.850,230.952 69.845 C 231.005 72.844,231.143 72.944,233.194 71.464 C 233.411 71.307,234.151 71.094,234.836 70.991 C 235.522 70.887,236.608 70.663,237.250 70.492 C 240.087 69.736,242.696 69.668,243.966 70.316 C 245.262 70.977,245.276 70.936,245.408 65.917 C 245.458 63.992,245.577 60.625,245.671 58.436 C 245.894 53.235,246.048 53.500,242.799 53.500 C 238.932 53.500,238.816 53.365,238.847 48.917 C 238.866 46.211,238.915 45.644,239.185 45.020 C 239.358 44.619,239.500 44.159,239.500 43.997 C 239.500 42.696,239.826 42.663,250.333 42.894 M179.371 43.223 C 179.741 43.389,180.104 43.719,180.269 44.042 C 180.422 44.340,180.910 45.005,181.355 45.520 C 182.557 46.915,182.592 47.186,182.351 53.201 C 182.239 55.978,182.078 60.291,181.992 62.785 C 181.887 65.841,181.761 67.538,181.606 67.990 C 181.256 69.004,181.569 69.379,182.397 68.936 C 183.237 68.488,184.537 68.628,185.140 69.232 L 185.583 69.676 185.525 76.213 C 185.494 79.808,185.507 82.711,185.556 82.664 C 185.605 82.616,185.690 79.728,185.745 76.247 C 185.800 72.765,185.916 66.992,186.003 63.417 C 186.090 59.842,186.208 54.442,186.264 51.417 C 186.390 44.646,185.977 45.333,189.910 45.333 C 193.358 45.333,193.646 45.410,194.142 46.464 C 194.345 46.896,194.665 47.512,194.853 47.833 C 195.206 48.439,195.229 58.844,194.894 66.445 C 194.813 68.292,194.840 69.179,194.996 69.737 C 195.241 70.611,195.237 70.609,195.951 70.173 C 196.709 69.711,199.828 69.700,201.583 70.153 C 201.950 70.248,202.491 70.327,202.785 70.329 C 203.164 70.332,203.578 70.542,204.202 71.050 C 204.687 71.444,205.421 71.900,205.833 72.064 C 206.246 72.227,206.704 72.470,206.852 72.602 C 207.000 72.735,207.508 72.890,207.982 72.946 C 208.456 73.002,208.883 73.112,208.931 73.190 C 208.980 73.269,209.197 73.333,209.414 73.333 C 210.994 73.333,210.094 76.257,207.813 78.535 C 207.472 78.875,207.146 79.301,207.089 79.482 C 207.031 79.663,206.525 80.248,205.963 80.781 C 205.402 81.314,204.698 81.986,204.400 82.274 C 204.102 82.562,203.590 83.002,203.262 83.252 C 202.495 83.837,202.509 83.914,203.458 84.340 C 204.106 84.631,204.438 84.677,205.288 84.593 C 206.968 84.428,207.057 84.486,207.951 86.309 C 208.467 87.362,208.749 88.162,208.768 88.627 C 208.783 89.018,208.870 89.431,208.961 89.544 C 209.863 90.676,209.650 93.000,208.644 93.000 C 208.565 93.000,208.500 93.265,208.500 93.589 C 208.500 95.924,208.681 95.888,196.993 95.904 C 184.424 95.920,185.787 96.734,185.666 89.145 C 185.619 86.238,185.525 83.803,185.457 83.735 C 185.389 83.667,185.333 83.837,185.333 84.112 C 185.333 85.509,184.266 87.463,182.681 88.968 C 180.836 90.719,180.500 91.078,180.500 91.293 C 180.500 91.702,179.955 92.346,179.268 92.747 C 178.129 93.413,176.904 93.500,168.773 93.494 C 159.882 93.488,158.878 93.379,158.475 92.377 C 158.199 91.690,157.681 89.488,157.661 88.917 C 157.645 88.471,157.617 88.501,157.406 89.189 C 157.081 90.242,155.915 90.619,155.795 89.708 C 155.761 89.447,155.678 89.751,155.602 90.417 C 155.411 92.088,154.903 93.410,154.271 93.877 C 153.199 94.668,153.048 94.687,148.601 94.586 C 146.300 94.534,142.579 94.463,140.333 94.428 C 134.417 94.336,133.542 93.928,132.769 90.898 L 132.579 90.151 131.944 91.325 C 131.595 91.971,131.253 92.500,131.183 92.500 C 131.067 92.500,130.328 93.536,129.602 94.716 C 128.851 95.937,127.529 96.271,122.917 96.405 C 120.900 96.464,118.763 96.582,118.167 96.669 C 116.408 96.925,110.260 96.877,109.603 96.602 C 107.981 95.925,107.452 93.675,107.420 87.333 C 107.407 84.721,107.336 82.079,107.263 81.462 C 107.002 79.280,107.155 79.187,111.277 79.048 L 114.138 78.950 114.582 79.434 C 115.375 80.295,116.158 81.400,116.501 82.144 C 116.854 82.907,117.333 82.900,117.333 82.131 C 117.333 81.950,117.481 81.614,117.662 81.384 C 117.843 81.154,118.040 80.707,118.099 80.390 C 118.229 79.700,118.672 79.379,119.622 79.286 C 120.417 79.209,120.450 79.254,120.668 80.744 C 120.785 81.534,120.793 81.505,120.813 80.243 C 120.824 79.506,120.946 78.471,121.083 77.944 C 121.655 75.749,121.532 75.656,118.333 75.852 C 109.193 76.413,108.844 76.324,107.986 73.211 L 107.583 71.750 107.564 59.917 C 107.544 47.187,107.531 47.402,108.381 46.696 C 108.869 46.292,110.854 46.012,114.500 45.836 C 116.563 45.736,119.497 45.582,121.021 45.494 C 127.360 45.127,127.468 45.150,129.251 47.239 C 131.062 49.362,130.918 48.716,130.909 54.667 C 130.897 62.632,130.838 62.864,128.770 63.065 C 126.545 63.281,123.265 63.246,122.886 63.002 C 122.007 62.434,121.296 60.328,121.425 58.674 C 121.580 56.698,121.548 56.662,119.688 56.683 C 116.809 56.717,116.640 56.976,116.733 61.227 C 116.810 64.772,116.884 64.948,118.167 64.638 C 118.589 64.537,120.665 64.452,122.917 64.444 C 127.475 64.428,127.802 64.509,128.806 65.900 C 129.077 66.276,129.467 66.771,129.671 67.000 C 130.398 67.814,130.659 68.656,130.663 70.200 C 130.668 72.028,130.860 72.500,131.600 72.500 C 131.901 72.500,132.197 72.420,132.257 72.322 C 132.318 72.224,132.472 72.184,132.600 72.233 C 132.799 72.310,132.834 70.577,132.836 60.620 C 132.840 47.140,132.879 46.461,133.736 45.188 C 134.064 44.699,134.333 44.229,134.333 44.141 C 134.333 43.583,137.184 43.295,139.736 43.596 C 141.598 43.815,141.987 44.131,141.731 45.212 C 141.661 45.508,141.624 45.825,141.649 45.917 C 141.693 46.074,141.668 69.448,141.624 70.333 C 141.551 71.780,141.962 72.569,142.410 71.844 C 142.803 71.207,144.651 70.850,145.567 71.232 C 147.054 71.854,146.970 72.534,147.089 58.984 C 147.194 46.986,147.233 46.293,147.833 45.750 C 148.010 45.590,148.238 45.206,148.340 44.895 C 148.598 44.116,148.843 44.027,151.103 43.902 C 154.847 43.693,156.024 44.077,155.998 45.498 C 155.991 45.912,155.979 51.500,155.972 57.917 C 155.965 64.333,155.943 72.977,155.923 77.126 C 155.887 84.432,155.896 84.652,156.184 84.178 C 157.007 82.825,157.413 83.215,157.643 85.583 L 157.788 87.083 157.817 84.833 C 157.833 83.596,157.879 82.321,157.920 82.000 C 157.961 81.679,158.071 78.979,158.165 76.000 C 158.258 73.021,158.404 68.858,158.490 66.750 C 158.576 64.642,158.687 61.417,158.736 59.583 C 159.207 42.091,159.090 43.236,160.433 43.007 C 162.098 42.722,178.675 42.912,179.371 43.223 M260.917 53.511 C 260.478 53.792,260.096 53.832,257.804 53.832 C 254.481 53.834,254.616 53.730,254.427 56.417 C 254.375 57.150,254.290 58.875,254.237 60.250 C 254.184 61.625,254.081 64.001,254.008 65.530 C 253.817 69.533,253.960 69.884,255.455 69.088 C 256.417 68.577,258.901 68.482,259.942 68.917 C 260.271 69.054,260.745 69.167,260.996 69.167 L 261.451 69.167 261.562 64.125 C 261.623 61.352,261.719 57.752,261.774 56.125 C 261.885 52.877,261.889 52.889,260.917 53.511 M168.873 54.007 C 168.214 54.270,168.098 55.012,167.910 60.167 C 167.788 63.530,167.714 63.420,169.924 63.177 C 172.491 62.895,172.628 62.700,172.654 59.298 C 172.661 58.408,172.749 56.920,172.850 55.990 C 172.955 55.025,172.972 54.238,172.888 54.155 C 172.682 53.949,169.328 53.825,168.873 54.007 M172.000 73.833 C 172.000 74.322,172.038 74.685,172.083 74.639 C 172.212 74.510,172.235 73.180,172.111 73.055 C 172.050 72.994,172.000 73.344,172.000 73.833 M156.880 73.590 C 156.668 73.745,156.553 73.753,156.470 73.619 C 156.296 73.337,156.461 73.188,156.837 73.286 C 157.155 73.369,157.158 73.386,156.880 73.590 M224.917 74.785 C 223.590 74.967,223.145 75.178,222.911 75.738 C 222.583 76.522,222.553 79.970,222.868 80.572 L 223.105 81.024 223.424 80.304 C 224.581 77.691,226.367 75.946,228.409 75.434 C 230.041 75.024,227.126 74.483,224.917 74.785 M253.857 75.208 C 253.595 76.046,253.483 79.447,253.701 79.926 C 254.020 80.625,254.273 80.391,255.227 78.515 L 256.153 76.697 255.678 76.042 C 254.700 74.693,254.103 74.419,253.857 75.208 M267.218 75.388 C 266.396 75.549,266.358 75.580,266.443 76.008 C 266.518 76.380,266.430 76.537,265.935 76.914 C 265.275 77.418,265.277 77.574,265.946 77.742 C 266.192 77.804,266.695 78.000,267.062 78.177 C 267.429 78.355,267.980 78.500,268.287 78.500 C 269.820 78.500,270.522 79.275,270.018 80.414 C 269.640 81.269,269.676 82.444,270.130 84.055 C 270.463 85.233,270.645 85.346,271.884 85.131 C 272.698 84.990,272.897 85.006,273.147 85.232 C 273.310 85.379,273.700 85.498,274.013 85.495 L 274.583 85.489 274.116 85.078 C 273.795 84.796,273.450 84.667,273.021 84.667 C 272.404 84.667,271.000 83.728,271.000 83.315 C 271.000 83.184,271.798 82.068,272.508 81.208 C 272.602 81.094,273.021 81.000,273.439 81.000 C 274.085 81.000,274.213 80.944,274.298 80.625 C 274.397 80.252,274.398 80.252,274.507 80.667 C 274.681 81.333,274.879 79.438,274.809 77.769 C 274.729 75.838,274.798 75.886,271.486 75.495 C 268.494 75.143,268.472 75.142,267.218 75.388 M195.036 80.198 C 194.816 80.418,194.781 80.870,194.938 81.458 C 195.076 81.971,195.224 81.929,195.457 81.311 C 195.701 80.667,195.389 79.844,195.036 80.198 M141.872 80.833 C 141.872 81.154,141.906 81.285,141.948 81.125 C 141.990 80.965,141.990 80.702,141.948 80.542 C 141.906 80.381,141.872 80.512,141.872 80.833 M116.590 84.428 C 116.460 85.298,116.551 85.500,117.074 85.500 C 117.588 85.500,117.721 84.956,117.362 84.327 C 116.931 83.572,116.714 83.601,116.590 84.428 " stroke="none" fill="#06dfba" fill-rule="evenodd"></path><path id="path3" d="M253.606 68.623 C 253.311 69.649,253.153 71.787,253.198 74.167 L 253.250 76.917 253.555 75.988 C 254.092 74.354,254.371 74.353,255.622 75.982 L 256.160 76.683 255.231 78.508 C 254.075 80.779,253.777 80.818,253.388 78.750 C 253.205 77.778,252.868 82.206,252.730 87.385 C 252.613 91.812,252.684 92.297,253.303 91.304 C 253.493 90.999,254.142 90.263,254.746 89.667 C 255.349 89.071,256.326 87.981,256.915 87.245 C 257.504 86.508,258.215 85.737,258.494 85.531 C 258.773 85.324,259.256 84.652,259.567 84.036 C 259.878 83.420,260.328 82.748,260.566 82.543 C 260.805 82.337,261.004 82.000,261.009 81.793 C 261.024 81.190,261.376 80.418,261.950 79.726 C 262.243 79.373,262.629 78.897,262.808 78.669 C 263.128 78.262,263.173 78.255,265.275 78.289 L 267.417 78.324 266.468 77.949 C 265.227 77.460,265.225 77.456,265.929 76.919 C 266.443 76.526,266.519 76.386,266.437 75.979 C 266.355 75.566,266.393 75.500,266.712 75.499 C 266.916 75.499,267.383 75.410,267.750 75.301 L 268.417 75.105 267.667 74.974 C 267.254 74.902,266.223 74.763,265.375 74.666 C 262.154 74.295,261.514 73.599,261.504 70.458 L 261.500 69.167 261.020 69.167 C 260.757 69.167,260.271 69.054,259.942 68.917 C 258.901 68.482,256.417 68.577,255.455 69.088 C 254.585 69.551,254.000 69.451,254.000 68.837 C 254.000 68.411,253.712 68.254,253.606 68.623 M180.750 69.197 C 180.265 69.773,180.266 69.833,180.774 71.609 C 181.047 72.563,181.053 72.962,180.855 77.276 C 180.738 79.828,180.602 83.979,180.553 86.500 L 180.463 91.083 181.107 90.468 C 181.460 90.129,182.169 89.454,182.681 88.968 C 185.219 86.557,185.337 86.099,185.526 77.917 C 185.699 70.404,185.664 69.712,185.079 69.163 C 184.511 68.629,183.183 68.516,182.397 68.936 C 181.839 69.234,181.799 69.235,181.595 68.958 C 181.309 68.570,181.268 68.581,180.750 69.197 M194.307 71.208 C 194.292 72.331,194.261 73.700,194.237 74.250 C 194.099 77.496,194.142 85.129,194.300 85.500 C 194.413 85.762,194.483 85.816,194.489 85.645 C 194.510 85.119,194.945 85.009,197.345 84.923 C 198.668 84.876,200.725 84.788,201.917 84.727 L 204.083 84.616 203.375 84.302 C 202.514 83.920,202.504 83.830,203.262 83.252 C 203.590 83.002,204.102 82.562,204.400 82.274 C 204.698 81.986,205.402 81.314,205.963 80.781 C 206.525 80.248,207.031 79.663,207.089 79.482 C 207.146 79.301,207.472 78.875,207.813 78.535 C 210.094 76.257,210.994 73.333,209.414 73.333 C 209.197 73.333,208.980 73.269,208.931 73.190 C 208.883 73.112,208.456 73.002,207.982 72.946 C 207.508 72.890,207.000 72.735,206.852 72.602 C 206.704 72.470,206.246 72.227,205.833 72.064 C 205.421 71.900,204.687 71.444,204.202 71.050 C 203.578 70.542,203.164 70.332,202.785 70.329 C 202.491 70.327,201.950 70.248,201.583 70.153 C 199.828 69.700,196.709 69.711,195.951 70.173 C 195.246 70.603,195.251 70.604,195.020 69.833 C 194.608 68.460,194.336 68.986,194.307 71.208 M282.667 69.730 C 282.667 69.868,282.742 70.027,282.833 70.083 C 282.925 70.140,283.000 70.074,283.000 69.936 C 283.000 69.799,282.925 69.640,282.833 69.583 C 282.742 69.527,282.667 69.593,282.667 69.730 M239.167 70.073 C 238.479 70.192,237.504 70.406,237.000 70.549 C 236.496 70.691,235.522 70.891,234.836 70.993 C 234.151 71.095,233.411 71.307,233.194 71.464 C 231.665 72.567,231.416 72.637,231.107 72.047 L 230.869 71.594 230.685 72.255 C 230.584 72.619,230.501 73.031,230.501 73.171 C 230.499 73.673,230.016 74.121,229.382 74.210 C 229.034 74.259,228.525 74.394,228.250 74.510 L 227.750 74.720 228.236 74.818 C 228.877 74.948,228.973 75.292,228.409 75.434 C 226.350 75.950,224.655 77.609,223.404 80.330 L 223.059 81.082 222.754 80.283 C 222.318 79.143,222.206 79.444,222.073 82.107 C 221.934 84.880,222.016 85.484,222.468 85.032 C 222.770 84.730,222.815 84.724,228.895 84.142 C 230.820 83.958,231.085 83.965,231.478 84.211 C 232.983 85.148,233.179 85.211,233.730 84.937 C 234.016 84.794,234.645 84.601,235.127 84.507 C 237.808 83.984,239.370 82.245,238.432 80.827 C 238.194 80.468,238.000 80.100,238.000 80.010 C 238.000 79.919,237.745 79.672,237.433 79.460 C 236.798 79.029,236.931 78.000,237.622 78.000 C 237.789 78.000,238.074 77.898,238.255 77.774 C 238.664 77.493,240.424 76.924,241.750 76.645 C 243.861 76.199,245.105 75.456,245.227 74.566 C 245.492 72.627,245.310 70.409,244.898 70.568 C 244.774 70.615,244.308 70.485,243.862 70.279 C 242.885 69.826,241.061 69.746,239.167 70.073 M141.186 74.000 C 141.178 76.272,141.240 78.022,141.333 78.167 C 141.477 78.389,141.498 78.389,141.519 78.167 C 141.587 77.473,141.883 80.435,141.863 81.607 C 141.832 83.430,141.814 83.418,144.599 83.413 C 145.817 83.410,146.874 83.348,146.949 83.274 C 147.113 83.110,147.233 72.707,147.083 71.693 C 146.986 71.041,146.953 71.000,146.753 71.274 C 146.539 71.567,146.503 71.567,145.674 71.269 C 144.555 70.866,142.826 71.171,142.410 71.844 C 142.197 72.189,141.673 71.999,141.578 71.542 C 141.256 69.987,141.200 70.343,141.186 74.000 M284.608 71.015 C 283.979 71.522,283.814 72.675,283.776 76.833 C 283.757 78.987,283.682 80.845,283.609 80.960 C 283.537 81.076,283.449 83.952,283.414 87.351 C 283.348 93.809,283.262 94.533,282.587 94.274 C 282.258 94.148,281.333 95.416,281.333 95.992 C 281.333 96.594,282.475 95.892,282.914 95.020 C 283.070 94.710,283.472 94.180,283.807 93.842 C 284.142 93.503,284.749 92.857,285.156 92.405 C 289.026 88.102,292.628 84.418,293.113 84.266 C 293.338 84.195,293.519 83.961,293.587 83.652 C 293.647 83.378,293.971 82.830,294.306 82.436 C 294.642 82.042,295.135 81.427,295.402 81.068 C 295.668 80.710,296.400 79.975,297.027 79.435 C 297.654 78.895,298.167 78.357,298.167 78.239 C 298.167 78.122,298.354 77.803,298.583 77.530 C 298.813 77.258,299.000 76.975,299.000 76.902 C 299.000 76.828,299.199 76.481,299.442 76.130 C 300.046 75.259,299.187 73.000,298.252 73.000 C 298.139 73.000,297.324 72.623,296.440 72.162 C 294.652 71.229,294.093 71.112,290.083 70.824 C 286.989 70.602,285.035 70.671,284.608 71.015 M282.932 71.202 C 282.889 71.412,282.864 71.846,282.875 72.167 C 282.897 72.752,282.728 77.443,282.584 80.250 C 282.299 85.825,282.296 86.763,282.564 86.395 C 282.775 86.108,282.842 85.289,282.919 82.062 C 282.972 79.874,283.082 77.633,283.164 77.083 C 283.502 74.805,283.291 69.439,282.932 71.202 M130.269 72.042 C 130.019 72.948,129.765 91.216,129.977 93.000 L 130.087 93.917 130.565 93.208 C 130.829 92.819,131.103 92.500,131.174 92.500 C 131.560 92.500,132.682 89.947,132.838 88.709 C 132.968 87.689,133.066 79.362,133.006 74.417 C 132.986 72.671,132.716 71.884,132.285 72.315 C 131.925 72.675,131.070 72.536,130.864 72.083 C 130.628 71.566,130.404 71.551,130.269 72.042 M167.164 72.838 C 166.884 73.361,166.389 82.103,166.620 82.438 C 166.806 82.708,171.138 82.433,171.439 82.133 C 171.664 81.908,171.939 78.358,172.041 74.375 L 172.089 72.500 169.717 72.500 C 167.505 72.500,167.333 72.523,167.164 72.838 M156.428 73.315 C 156.253 73.598,156.589 73.802,156.880 73.590 C 157.158 73.386,157.155 73.369,156.837 73.286 C 156.652 73.238,156.468 73.251,156.428 73.315 M119.205 79.348 C 118.479 79.496,118.221 79.742,118.096 80.406 C 118.039 80.714,117.843 81.154,117.662 81.384 C 117.481 81.614,117.333 81.944,117.333 82.118 C 117.333 82.691,116.960 82.889,116.652 82.480 C 116.294 82.006,116.069 83.221,116.267 84.561 L 116.393 85.417 116.571 84.546 C 116.681 84.012,116.816 83.723,116.921 83.796 C 117.289 84.056,117.642 84.809,117.554 85.145 C 117.465 85.485,117.516 85.500,118.802 85.500 C 120.774 85.500,120.907 85.297,120.776 82.500 C 120.627 79.294,120.520 79.079,119.205 79.348 M195.457 81.311 C 195.224 81.929,195.076 81.971,194.938 81.458 C 194.673 80.468,195.060 79.655,195.446 80.392 C 195.609 80.702,195.611 80.904,195.457 81.311 M274.298 80.625 C 274.213 80.944,274.085 81.000,273.439 81.000 C 273.021 81.000,272.602 81.094,272.508 81.208 C 271.798 82.068,271.000 83.184,271.000 83.315 C 271.000 83.722,272.403 84.667,273.008 84.667 C 273.368 84.667,273.796 84.803,274.042 84.997 L 274.463 85.328 274.562 84.956 C 274.698 84.450,274.662 81.185,274.516 80.667 C 274.398 80.251,274.398 80.251,274.298 80.625 M156.701 83.595 C 155.890 84.162,155.750 84.730,155.750 87.444 C 155.750 90.255,155.749 90.251,156.571 90.097 C 157.334 89.953,157.672 88.938,157.654 86.845 C 157.631 84.028,157.366 83.129,156.701 83.595 M268.667 83.907 C 268.667 84.039,268.742 84.193,268.833 84.250 C 268.925 84.307,269.000 84.199,269.000 84.010 C 269.000 83.821,268.925 83.667,268.833 83.667 C 268.742 83.667,268.667 83.775,268.667 83.907 M271.708 85.121 C 270.747 85.240,271.133 85.500,272.270 85.500 C 273.233 85.500,273.348 85.468,273.167 85.250 C 272.962 85.004,272.780 84.988,271.708 85.121 M282.333 87.583 C 282.333 88.026,282.378 88.344,282.433 88.289 C 282.488 88.234,282.533 87.916,282.533 87.583 C 282.533 87.250,282.488 86.933,282.433 86.878 C 282.378 86.823,282.333 87.140,282.333 87.583 M234.884 89.275 C 234.681 89.803,234.736 92.417,234.950 92.417 C 235.606 92.417,236.563 90.301,236.035 90.019 C 235.871 89.931,235.633 89.666,235.507 89.430 C 235.242 88.934,235.034 88.883,234.884 89.275 M208.284 89.439 C 208.126 89.597,208.139 92.698,208.299 92.950 C 208.580 93.393,209.668 92.046,209.664 91.259 C 209.659 90.305,208.692 89.030,208.284 89.439 M155.262 91.595 C 155.201 91.839,155.188 92.077,155.234 92.123 C 155.280 92.168,155.367 92.006,155.429 91.762 C 155.490 91.518,155.503 91.280,155.457 91.234 C 155.411 91.189,155.323 91.351,155.262 91.595 " stroke="none" fill="#088e79" fill-rule="evenodd"></path><path id="path4" d="M240.661 43.338 C 239.650 43.735,239.255 45.335,239.252 49.035 C 239.249 53.210,238.953 52.858,242.685 53.102 C 244.875 53.245,245.587 53.349,245.791 53.552 C 246.056 53.818,246.143 59.754,245.908 61.583 C 245.860 61.950,245.746 65.362,245.654 69.167 C 245.562 72.971,245.420 77.696,245.339 79.667 C 245.257 81.637,245.185 85.207,245.179 87.599 C 245.164 93.070,244.799 92.564,248.809 92.637 C 252.775 92.710,252.389 93.185,252.532 88.055 C 252.595 85.779,252.726 82.679,252.823 81.167 C 252.919 79.654,253.003 77.179,253.008 75.667 C 253.014 74.154,253.085 71.829,253.166 70.500 C 253.320 67.974,253.598 61.735,253.770 56.940 C 253.902 53.236,253.618 53.500,257.474 53.500 C 261.362 53.500,261.043 53.853,261.136 49.442 C 261.203 46.254,261.188 46.028,260.854 45.373 C 260.659 44.992,260.500 44.525,260.500 44.336 C 260.500 44.131,260.348 43.936,260.125 43.854 C 259.098 43.477,241.495 43.010,240.661 43.338 M160.333 43.451 C 159.672 43.574,159.675 43.559,159.589 47.840 C 159.543 50.082,159.429 54.204,159.335 57.000 C 158.504 81.674,158.315 91.159,158.638 92.007 C 158.995 92.948,158.631 92.912,168.484 92.968 C 180.996 93.038,180.156 93.461,180.347 87.000 C 180.410 84.846,180.557 80.721,180.672 77.833 C 180.884 72.526,180.852 71.874,180.315 70.549 C 180.119 70.064,180.141 69.924,180.555 69.049 C 181.190 67.707,181.319 66.710,181.501 61.750 C 181.723 55.684,181.824 52.951,181.928 50.219 C 182.042 47.234,181.926 46.783,180.698 45.410 C 180.176 44.828,179.589 44.141,179.391 43.884 L 179.033 43.417 169.891 43.395 C 164.864 43.383,160.563 43.408,160.333 43.451 M136.047 43.967 C 135.311 44.009,135.120 44.093,134.797 44.510 C 134.588 44.781,134.183 45.296,133.898 45.656 C 133.181 46.560,133.179 46.624,133.245 71.133 L 133.301 91.848 133.692 92.436 C 134.611 93.815,135.537 93.949,145.417 94.130 C 156.074 94.326,154.947 96.030,155.064 79.541 C 155.110 73.009,155.184 67.607,155.228 67.535 C 155.438 67.195,155.409 44.842,155.198 44.631 C 155.045 44.478,154.179 44.400,152.175 44.359 C 148.979 44.292,149.297 44.168,148.153 45.928 L 147.496 46.940 147.427 65.063 C 147.374 78.784,147.309 83.245,147.158 83.427 C 147.003 83.614,146.457 83.667,144.658 83.667 L 142.356 83.667 142.000 84.167 C 141.466 84.916,141.253 84.796,141.044 83.625 C 140.805 82.293,140.958 45.412,141.204 44.939 C 141.566 44.242,139.155 43.787,136.047 43.967 M229.167 44.681 C 227.838 44.754,226.037 44.894,225.167 44.991 C 224.296 45.088,222.496 45.247,221.167 45.343 C 219.838 45.439,218.075 45.588,217.250 45.673 C 216.425 45.758,215.315 45.829,214.784 45.830 C 213.019 45.836,213.095 45.569,212.856 52.587 C 212.743 55.885,212.578 60.683,212.489 63.250 C 212.400 65.817,212.216 71.967,212.081 76.917 C 211.946 81.867,211.793 87.417,211.741 89.250 C 211.633 93.099,211.474 92.663,213.553 94.213 C 215.289 95.507,215.565 95.574,218.167 95.325 C 219.221 95.225,221.021 95.074,222.167 94.991 C 223.313 94.908,224.625 94.767,225.083 94.680 C 225.542 94.592,226.517 94.515,227.250 94.510 C 227.983 94.504,229.183 94.395,229.917 94.268 C 230.650 94.140,231.866 93.983,232.619 93.918 C 234.376 93.766,234.368 93.779,234.537 91.111 C 234.819 86.652,234.818 86.641,234.250 86.290 C 233.975 86.120,233.154 85.602,232.426 85.139 L 231.101 84.297 229.176 84.405 C 224.546 84.664,223.467 84.934,222.592 86.052 C 221.797 87.068,221.753 86.716,221.942 80.874 C 222.049 77.580,222.185 75.444,222.302 75.225 C 222.600 74.668,222.660 74.656,227.500 74.166 C 230.342 73.879,230.274 73.966,230.438 70.353 L 230.549 67.873 230.066 67.577 C 229.801 67.414,229.016 66.917,228.324 66.474 C 226.455 65.277,225.081 65.354,223.597 66.738 C 222.608 67.660,222.440 67.480,222.560 65.623 C 222.615 64.776,222.702 62.433,222.755 60.417 C 222.892 55.223,222.709 55.565,225.473 55.323 C 235.632 54.432,235.453 54.452,235.740 54.160 C 236.144 53.747,236.551 47.594,236.229 46.755 C 236.172 46.606,235.665 46.252,235.104 45.970 C 234.543 45.687,233.770 45.241,233.387 44.978 C 232.926 44.662,232.502 44.508,232.137 44.524 C 231.832 44.538,230.496 44.608,229.167 44.681 M172.006 44.896 C 179.468 44.969,179.606 44.991,180.935 46.352 L 181.583 47.016 181.540 50.133 C 181.517 51.847,181.424 55.087,181.334 57.333 C 181.244 59.579,181.129 62.542,181.078 63.917 C 180.974 66.732,180.813 67.750,180.257 69.117 C 179.895 70.008,179.886 70.107,180.120 70.741 C 180.714 72.357,180.714 72.391,180.024 88.135 L 179.891 91.187 179.304 91.774 C 178.508 92.570,177.433 92.654,168.083 92.657 C 160.711 92.659,159.597 92.585,159.222 92.074 C 158.756 91.436,158.779 87.615,159.338 72.833 C 159.430 70.404,159.579 65.829,159.670 62.667 C 160.166 45.438,160.175 45.294,160.885 45.064 C 161.506 44.863,163.198 44.723,164.333 44.779 C 164.929 44.808,168.382 44.861,172.006 44.896 M254.917 45.011 C 261.308 45.306,260.913 45.008,260.793 49.451 C 260.683 53.511,260.989 53.167,257.487 53.167 C 253.252 53.167,253.563 52.679,253.341 59.667 C 253.249 62.554,253.099 66.642,253.006 68.750 C 252.914 70.858,252.724 75.958,252.584 80.083 C 252.260 89.594,252.151 91.755,251.981 92.029 C 251.649 92.564,245.967 92.229,245.661 91.656 C 245.458 91.277,245.699 76.202,246.003 70.250 C 246.267 65.070,246.536 54.493,246.419 53.869 C 246.269 53.073,245.700 52.897,242.833 52.763 C 239.386 52.600,239.629 52.904,239.696 48.847 C 239.753 45.371,239.800 45.155,240.578 44.814 C 240.961 44.646,249.595 44.765,254.917 45.011 M139.221 45.700 C 140.873 46.014,140.737 44.179,140.610 64.471 C 140.480 85.098,140.517 85.809,141.689 85.141 C 141.906 85.018,142.571 84.909,143.167 84.901 C 145.408 84.867,146.239 84.675,146.975 84.020 L 147.653 83.417 147.767 65.297 C 147.848 52.316,147.934 47.069,148.070 46.797 C 148.677 45.577,154.330 45.618,154.839 46.847 C 155.156 47.611,154.822 90.869,154.489 92.175 C 154.330 92.801,153.638 93.564,153.083 93.727 C 152.514 93.893,136.819 93.532,135.833 93.330 C 134.611 93.079,133.915 92.417,133.669 91.273 C 133.471 90.349,133.625 47.272,133.829 46.503 C 133.903 46.225,134.127 46.026,134.511 45.898 C 134.826 45.793,135.308 45.634,135.583 45.543 C 136.153 45.357,137.790 45.427,139.221 45.700 M118.683 46.040 C 108.086 46.543,107.696 46.654,108.146 49.063 C 108.224 49.478,108.250 54.864,108.205 61.033 C 108.089 76.803,107.956 76.527,115.254 75.679 C 115.985 75.594,117.671 75.477,119.000 75.419 C 122.176 75.280,122.114 75.238,121.862 77.349 C 121.760 78.211,121.592 80.004,121.490 81.333 C 121.180 85.368,121.101 85.522,119.269 85.681 C 117.618 85.825,116.709 86.103,116.582 86.504 C 116.271 87.483,115.833 85.718,115.833 83.486 C 115.833 82.039,115.795 81.847,115.404 81.324 C 115.167 81.008,114.830 80.472,114.654 80.133 C 114.235 79.324,113.901 79.270,110.601 79.473 C 107.271 79.678,107.285 79.668,107.829 81.402 C 108.208 82.613,108.216 82.755,108.108 86.698 C 107.929 93.233,108.256 95.384,109.548 96.173 C 110.163 96.547,115.479 96.654,117.635 96.335 C 118.248 96.244,120.587 96.102,122.833 96.018 C 127.936 95.828,128.667 95.640,129.328 94.344 C 129.611 93.790,129.940 82.895,130.063 70.000 C 130.081 68.135,129.997 67.940,128.453 66.257 L 127.389 65.097 125.903 64.937 C 122.015 64.521,117.916 64.902,117.059 65.760 C 116.206 66.612,116.088 65.963,116.208 61.099 C 116.329 56.255,116.090 56.585,119.601 56.401 C 122.240 56.262,122.081 56.112,122.089 58.750 C 122.101 62.651,122.465 63.021,126.089 62.823 C 127.461 62.748,128.793 62.682,129.049 62.677 C 129.311 62.671,129.694 62.488,129.924 62.258 L 130.333 61.848 130.333 55.768 C 130.333 48.763,130.438 49.284,128.638 47.332 L 127.278 45.858 126.031 45.804 C 125.344 45.774,122.038 45.880,118.683 46.040 M187.667 45.789 C 186.833 45.887,186.751 46.036,186.745 47.468 C 186.742 48.173,186.648 53.400,186.535 59.083 C 186.182 76.835,186.030 93.644,186.215 94.374 C 186.513 95.549,186.226 95.521,197.424 95.466 C 207.074 95.418,207.332 95.408,207.643 95.083 C 208.148 94.555,208.294 87.698,207.813 87.143 C 207.635 86.937,207.408 86.448,207.309 86.056 C 207.025 84.929,207.276 84.967,201.098 85.118 L 195.503 85.254 194.979 85.890 C 193.794 87.326,193.712 85.268,194.249 67.667 C 194.379 63.404,194.535 57.290,194.597 54.080 L 194.709 48.243 194.230 47.674 C 193.966 47.361,193.675 46.875,193.583 46.594 C 193.315 45.771,190.767 45.424,187.667 45.789 M266.103 45.952 C 265.819 46.025,264.472 46.930,263.288 47.842 C 262.181 48.695,262.150 49.070,261.904 64.667 C 261.743 74.824,261.183 73.969,268.500 74.742 C 274.417 75.368,274.668 75.421,274.978 76.102 C 275.361 76.942,275.107 85.387,274.684 85.896 C 274.472 86.151,271.812 86.101,270.946 85.825 C 270.573 85.706,270.378 85.747,270.007 86.021 C 268.976 86.783,268.500 85.854,268.500 83.082 L 268.500 81.215 269.083 80.451 C 269.767 79.555,269.796 79.380,269.292 79.171 C 268.734 78.941,266.295 78.667,264.809 78.667 L 263.504 78.667 262.510 79.708 C 261.319 80.957,261.395 80.533,261.161 87.167 C 260.880 95.139,260.449 94.670,268.917 95.591 C 270.200 95.731,272.262 95.959,273.500 96.098 C 280.808 96.922,281.472 96.724,281.749 93.645 C 281.931 91.615,282.388 77.554,282.423 72.892 C 282.453 68.867,282.496 68.145,282.729 67.813 C 283.573 66.608,282.567 66.312,275.417 65.661 C 274.317 65.561,272.948 65.406,272.375 65.318 C 271.432 65.172,271.271 65.192,270.684 65.530 C 269.347 66.300,269.088 65.269,269.324 60.112 C 269.527 55.681,269.262 56.094,271.817 56.226 C 275.753 56.428,275.766 56.441,275.705 59.997 C 275.643 63.654,275.368 63.449,280.757 63.769 C 283.005 63.903,282.840 64.249,283.015 59.044 C 283.276 51.313,283.192 49.603,282.487 48.292 C 282.378 48.088,282.391 48.000,282.532 48.000 C 283.113 48.000,282.257 47.672,281.083 47.445 C 279.749 47.187,278.834 47.076,274.000 46.587 C 272.579 46.443,270.389 46.214,269.133 46.079 C 266.767 45.824,266.625 45.819,266.103 45.952 M235.379 46.508 C 235.633 46.627,235.885 46.898,235.938 47.110 C 236.092 47.722,235.717 53.489,235.507 53.742 C 235.270 54.027,233.640 54.243,228.505 54.669 C 222.303 55.183,222.593 54.995,222.438 58.620 C 222.219 63.742,222.237 67.504,222.482 67.655 C 222.607 67.733,223.318 67.762,224.063 67.720 C 226.940 67.559,229.561 67.672,229.896 67.971 C 230.233 68.270,230.192 72.140,229.843 73.058 C 229.661 73.538,228.702 73.759,225.676 74.018 C 221.780 74.353,221.858 74.255,221.660 79.015 C 221.346 86.558,221.408 87.172,222.457 86.936 C 222.710 86.879,223.854 86.790,225.000 86.737 C 226.146 86.685,227.346 86.573,227.667 86.489 C 228.520 86.264,233.395 86.293,233.906 86.525 C 234.498 86.795,234.542 87.071,234.350 89.288 C 234.256 90.367,234.150 91.648,234.113 92.135 C 234.077 92.621,233.969 93.098,233.873 93.194 C 233.665 93.402,230.627 93.783,227.499 93.995 C 226.261 94.078,224.911 94.224,224.499 94.319 C 224.087 94.414,223.218 94.494,222.569 94.496 C 221.919 94.498,220.644 94.612,219.735 94.749 C 215.752 95.349,214.655 94.849,214.258 92.250 C 214.202 91.883,214.085 91.358,213.998 91.083 C 213.270 88.780,213.135 88.149,213.241 87.553 C 213.304 87.203,213.355 86.317,213.354 85.583 C 213.351 81.463,213.356 80.646,213.394 79.583 C 213.458 77.774,213.655 73.120,213.838 69.083 C 213.930 67.067,213.994 64.629,213.981 63.667 C 213.916 58.824,214.118 52.205,214.365 51.057 C 214.506 50.401,214.566 49.774,214.498 49.664 C 214.430 49.553,214.413 49.316,214.460 49.136 C 214.507 48.956,214.410 48.362,214.245 47.816 C 213.845 46.494,213.990 46.343,215.287 46.730 C 217.222 47.306,217.397 47.324,219.667 47.163 C 220.904 47.076,222.479 46.934,223.167 46.848 C 223.854 46.763,225.692 46.610,227.250 46.509 C 228.808 46.408,230.383 46.305,230.750 46.280 C 232.293 46.173,234.943 46.304,235.379 46.508 M127.674 47.601 C 128.592 47.874,129.397 48.483,129.756 49.178 C 130.088 49.821,130.121 61.446,129.792 61.874 C 129.390 62.396,124.054 62.793,123.358 62.352 C 122.978 62.111,122.672 60.345,122.669 58.379 C 122.666 55.898,122.685 55.913,119.617 56.048 C 115.765 56.217,115.917 55.976,115.917 61.950 C 115.917 66.455,115.951 66.695,116.600 66.673 C 117.203 66.652,120.778 66.343,121.833 66.220 C 122.246 66.172,122.790 66.140,123.042 66.150 C 123.509 66.167,123.781 66.167,125.641 66.148 C 126.852 66.135,128.554 66.843,129.158 67.610 C 129.817 68.448,129.840 68.906,129.664 77.500 C 129.571 82.037,129.477 87.513,129.456 89.667 C 129.399 95.400,129.428 95.372,123.254 95.589 C 121.785 95.641,119.683 95.752,118.583 95.837 C 111.481 96.386,109.645 96.247,109.112 95.117 C 108.484 93.789,108.373 82.394,108.980 81.655 C 109.319 81.244,111.766 80.910,113.250 81.073 C 113.800 81.133,114.346 81.192,114.464 81.202 C 115.239 81.274,115.443 81.849,115.565 84.311 C 115.689 86.820,115.834 87.500,116.243 87.500 C 116.678 87.500,118.667 86.616,118.667 86.422 C 118.667 86.321,119.396 86.090,120.288 85.910 C 122.387 85.487,122.263 85.808,122.412 80.424 C 122.577 74.458,123.019 74.930,117.540 75.214 C 110.390 75.584,109.932 75.527,109.169 74.166 L 108.750 73.417 108.757 62.333 C 108.765 51.028,108.839 49.512,109.421 48.716 C 109.672 48.372,111.419 48.149,116.417 47.824 C 118.067 47.716,120.204 47.574,121.167 47.507 C 124.141 47.300,126.790 47.339,127.674 47.601 M193.157 47.660 C 194.403 47.896,194.365 47.652,194.251 54.583 C 194.196 57.975,194.081 63.112,193.995 66.000 C 193.910 68.887,193.789 74.632,193.727 78.766 L 193.615 86.281 193.977 86.644 C 194.316 86.982,194.370 86.989,194.828 86.753 C 195.379 86.468,196.593 86.413,196.750 86.667 C 196.891 86.895,198.888 86.878,199.119 86.647 C 199.256 86.511,199.400 86.528,199.663 86.712 C 200.012 86.956,200.667 86.925,200.667 86.665 C 200.667 86.104,206.588 86.681,207.320 87.313 L 207.826 87.750 207.720 91.216 C 207.629 94.220,207.578 94.703,207.336 94.832 C 206.829 95.103,188.187 95.238,187.428 94.976 C 186.469 94.645,186.476 94.737,186.577 84.000 C 186.790 61.299,187.059 48.667,187.343 48.083 C 187.700 47.350,190.468 47.149,193.157 47.660 M270.750 47.816 C 278.007 48.547,281.710 49.183,282.278 49.795 C 283.133 50.719,283.003 62.844,282.132 63.393 C 281.771 63.621,277.345 63.270,276.704 62.963 L 276.250 62.746 276.160 59.998 C 276.036 56.221,276.085 56.278,272.696 55.926 C 269.051 55.546,269.093 55.495,268.943 60.491 C 268.786 65.699,268.942 66.231,270.667 66.382 C 271.171 66.426,272.408 66.618,273.417 66.809 C 274.425 67.000,275.737 67.161,276.333 67.167 C 278.342 67.186,281.029 67.751,281.452 68.242 C 282.357 69.295,282.362 69.739,281.667 88.500 C 281.362 96.728,281.439 96.639,275.250 95.879 C 274.333 95.766,272.458 95.554,271.083 95.407 C 261.603 94.396,261.473 94.347,261.433 91.692 C 261.408 90.000,261.665 82.343,261.773 81.547 C 261.946 80.286,263.077 79.976,265.890 80.420 C 268.303 80.801,268.164 80.635,268.183 83.145 C 268.209 86.606,268.590 87.480,269.962 87.228 C 270.262 87.173,271.087 87.221,271.795 87.334 C 273.474 87.601,274.058 87.447,274.696 86.565 L 275.185 85.890 275.357 82.070 C 275.685 74.797,276.005 75.284,270.500 74.677 C 268.804 74.490,266.629 74.250,265.667 74.144 C 262.017 73.742,262.070 73.843,262.133 67.363 C 262.161 64.551,262.221 62.121,262.268 61.963 C 262.314 61.806,262.411 58.956,262.483 55.630 C 262.672 46.832,262.510 46.985,270.750 47.816 M168.079 53.391 C 167.250 53.766,167.202 54.065,167.073 59.689 C 166.932 65.826,166.860 65.553,168.479 65.007 C 169.035 64.820,169.599 64.667,169.733 64.667 C 169.867 64.667,170.092 64.551,170.234 64.409 C 170.456 64.187,170.978 64.048,172.750 63.739 C 173.797 63.557,173.959 62.613,173.987 56.546 L 174.000 53.841 173.549 53.546 C 172.949 53.151,168.865 53.036,168.079 53.391 M173.279 53.874 C 173.537 54.133,173.309 60.853,173.003 61.989 C 172.719 63.042,172.030 63.500,170.728 63.500 C 169.257 63.500,168.205 63.786,167.887 64.273 C 167.745 64.489,167.562 64.667,167.481 64.667 C 167.114 64.667,167.455 54.373,167.837 53.913 C 168.214 53.458,172.830 53.426,173.279 53.874 M167.012 72.292 C 166.521 72.691,166.335 74.615,166.287 79.785 C 166.246 84.243,166.344 84.719,167.190 84.191 C 167.383 84.070,167.944 83.930,168.437 83.879 C 168.930 83.828,169.343 83.722,169.354 83.643 C 169.366 83.565,169.384 83.410,169.396 83.299 C 169.425 83.018,170.068 82.869,171.343 82.850 C 173.221 82.821,173.259 82.697,173.323 76.227 C 173.370 71.631,173.661 72.000,169.981 72.000 C 167.742 72.000,167.319 72.042,167.012 72.292 M172.728 72.525 C 172.870 72.719,172.893 73.183,172.809 74.108 C 172.744 74.828,172.685 76.421,172.679 77.649 C 172.657 81.681,172.120 82.667,169.945 82.667 C 168.132 82.667,167.509 82.832,167.221 83.389 C 166.516 84.753,166.292 81.599,166.665 75.542 C 166.832 72.835,166.948 72.403,167.541 72.277 C 168.556 72.061,172.528 72.251,172.728 72.525 " stroke="none" fill="#8be9da" fill-rule="evenodd"></path></g></svg>
